<svg width="24" height="13" viewBox="0 0 24 13" fill="none" xmlns="http://www.w3.org/2000/svg">
<path d="M16 1.01025H1V8.34473H16V1.01025Z" stroke="white" stroke-width="2" stroke-linecap="round" stroke-linejoin="round"/>
<path d="M16 3.83118H20L23 5.52376V8.34473H16V3.83118Z" stroke="white" stroke-width="2" stroke-linecap="round" stroke-linejoin="round"/>
<path d="M5.5 11.1656C6.88071 11.1656 8 10.5342 8 9.75519C8 8.97621 6.88071 8.34473 5.5 8.34473C4.11929 8.34473 3 8.97621 3 9.75519C3 10.5342 4.11929 11.1656 5.5 11.1656Z" stroke="white" stroke-width="2" stroke-linecap="round" stroke-linejoin="round"/>
<path d="M18.5 11.1656C19.8807 11.1656 21 10.5342 21 9.75519C21 8.97621 19.8807 8.34473 18.5 8.34473C17.1193 8.34473 16 8.97621 16 9.75519C16 10.5342 17.1193 11.1656 18.5 11.1656Z" stroke="white" stroke-width="2" stroke-linecap="round" stroke-linejoin="round"/>
</svg>
