<svg width="24" height="15" viewBox="0 0 24 15" fill="none" xmlns="http://www.w3.org/2000/svg">
<path d="M9 13.3378C9.55228 13.3378 10 13.0852 10 12.7736C10 12.462 9.55228 12.2094 9 12.2094C8.44772 12.2094 8 12.462 8 12.7736C8 13.0852 8.44772 13.3378 9 13.3378Z" stroke="white" stroke-width="2" stroke-linecap="round" stroke-linejoin="round"/>
<path d="M20 13.3378C20.5523 13.3378 21 13.0852 21 12.7736C21 12.462 20.5523 12.2094 20 12.2094C19.4477 12.2094 19 12.462 19 12.7736C19 13.0852 19.4477 13.3378 20 13.3378Z" stroke="white" stroke-width="2" stroke-linecap="round" stroke-linejoin="round"/>
<path d="M1 1.48975H5L7.68 9.04427C7.77144 9.30402 8.02191 9.53735 8.38755 9.70341C8.75318 9.86947 9.2107 9.95769 9.68 9.95261H19.4C19.8693 9.95769 20.3268 9.86947 20.6925 9.70341C21.0581 9.53735 21.3086 9.30402 21.4 9.04427L23 4.3107H6" stroke="white" stroke-width="2" stroke-linecap="round" stroke-linejoin="round"/>
</svg>
